<?xml version="1.0" encoding="UTF-8" standalone="no"?>
<!DOCTYPE svg PUBLIC "-//W3C//DTD SVG 1.1//EN" "http://www.w3.org/Graphics/SVG/1.1/DTD/svg11.dtd">
<svg width="100%" height="100%" viewBox="0 0 300 110" version="1.1" xmlns="http://www.w3.org/2000/svg" xmlns:xlink="http://www.w3.org/1999/xlink" xml:space="preserve" xmlns:serif="http://www.serif.com/" style="fill-rule:evenodd;clip-rule:evenodd;stroke-linejoin:round;stroke-miterlimit:2;">
    <g transform="matrix(1,0,0,1,-106,-201.089)">
        <g transform="matrix(1,0,0,1,-590.341,526.436)">
            <g id="anima" transform="matrix(1.07319,0,0,1.07319,696.341,-325.346)">
                <g transform="matrix(1,0,0,1,29.4908,46.8642)">
                    <path d="M0,23.281C6.541,23.281 11.087,18.625 11.087,11.53C11.087,4.544 6.541,-0.001 0,-0.001C-6.431,-0.001 -11.309,4.655 -11.309,11.64C-11.309,18.735 -6.431,23.281 0,23.281M-29.491,11.64C-29.491,-4.325 -19.18,-16.852 -4.213,-16.852C3.437,-16.852 8.647,-14.081 12.084,-9.314L12.306,-13.749C12.306,-14.746 13.082,-15.522 14.08,-15.522L27.828,-15.522C28.824,-15.522 29.602,-14.746 29.602,-13.749L29.602,37.028C29.602,38.026 28.713,38.802 27.717,38.802L14.08,38.802C13.082,38.802 12.306,38.026 12.306,37.028L12.084,32.483C8.426,37.25 3.215,40.133 -4.213,40.133C-19.18,40.133 -29.491,27.716 -29.491,11.64" style="fill:rgb(0,255,155);fill-rule:nonzero;"/>
                </g>
                <g transform="matrix(1,0,0,1,68.3083,31.7856)">
                    <path d="M0,52.107L0,1.33C0,0.333 0.777,-0.444 1.774,-0.444L16.409,-0.444C17.296,-0.444 18.072,-0 18.072,1.441L18.627,7.538C21.73,1.996 26.498,-1.774 34.147,-1.774C45.344,-1.774 53.771,6.652 53.771,20.732L53.771,52.107C53.771,53.105 52.884,53.881 51.886,53.881L36.919,53.881C35.921,53.881 35.145,53.105 35.145,52.107L35.145,25.388C35.145,18.626 32.374,15.299 26.941,15.299C21.619,15.299 18.627,18.626 18.627,25.388L18.627,52.107C18.627,53.105 17.85,53.881 16.853,53.881L1.774,53.881C0.777,53.881 0,53.105 0,52.107" style="fill:rgb(0,255,155);fill-rule:nonzero;"/>
                </g>
                <g transform="matrix(1,0,0,1,249.477,46.8642)">
                    <path d="M0,23.281C6.542,23.281 11.087,18.625 11.087,11.53C11.087,4.544 6.542,-0.001 0,-0.001C-6.429,-0.001 -11.308,4.655 -11.308,11.64C-11.308,18.735 -6.429,23.281 0,23.281M-29.489,11.64C-29.489,-4.325 -19.179,-16.852 -4.213,-16.852C3.438,-16.852 8.649,-14.081 12.085,-9.314L12.307,-13.749C12.307,-14.746 13.083,-15.522 14.081,-15.522L27.828,-15.522C28.826,-15.522 29.602,-14.746 29.602,-13.749L29.602,37.028C29.602,38.026 28.715,38.802 27.717,38.802L14.081,38.802C13.083,38.802 12.307,38.026 12.307,37.028L12.085,32.483C8.427,37.25 3.216,40.133 -4.213,40.133C-19.179,40.133 -29.489,27.716 -29.489,11.64" style="fill:rgb(0,255,155);fill-rule:nonzero;"/>
                </g>
                <g id="icon" transform="matrix(0.931799,0,0,0.931799,-624.559,-195.655)">
                    <g transform="matrix(1.07319,0,0,1.07319,847.061,222.396)">
                        <path d="M54.827,74.085L-9.361,74.199L22.669,0.655C23.056,0 24.003,0 24.39,0.655L55.685,72.576C56.079,73.242 55.6,74.084 54.827,74.085Z" style="fill:url(#_Linear1);fill-rule:nonzero;"/>
                    </g>
                    <g transform="matrix(1.07319,0,0,1.07319,847.061,222.396)">
                        <path d="M23.902,74.175L-7.547,19.278C-7.935,18.623 -8.882,18.623 -9.269,19.278L-35.532,72.69C-35.926,73.357 -35.446,74.199 -34.671,74.199L23.902,74.175Z" style="fill:rgb(0,255,155);fill-rule:nonzero;"/>
                    </g>
                    <g transform="matrix(1.07319,0,0,1.07319,819.73,209.974)">
                        <path d="M0,23.282C6.541,23.282 11.087,18.626 11.087,11.531C11.087,4.545 6.541,0 0,0C-6.431,0 -11.309,4.656 -11.309,11.641C-11.309,18.736 -6.431,23.282 0,23.282" style="fill:rgb(0,255,155);fill-rule:nonzero;"/>
                    </g>
                </g>
            </g>
            <g id="livewallpaper" transform="matrix(1.07319,0,0,1.07319,696.341,-325.346)">
                <g transform="matrix(1,0,0,1,10.8955,94.154)">
                    <path d="M0,8.176L-4.356,8.176L-4.356,0L-3.089,0L-3.089,7.339L0,7.339L0,8.176Z" style="fill:rgb(68,68,68);fill-rule:nonzero;"/>
                </g>
                <g transform="matrix(1,0,0,1,0,94.154)">
                    <rect x="30.419" y="0" width="1.267" height="8.176" style="fill:rgb(68,68,68);"/>
                </g>
                <g transform="matrix(1,0,0,1,52.5795,94.154)">
                    <path d="M0,8.176L-2.455,0L-1.188,0L0.079,4.318C0.649,6.332 0.76,6.915 0.808,7.205C0.839,6.915 0.934,6.344 1.536,4.318L2.804,0L4.071,0L1.6,8.176L0,8.176Z" style="fill:rgb(68,68,68);fill-rule:nonzero;"/>
                </g>
                <g transform="matrix(1,0,0,1,78.0822,94.154)">
                    <path d="M0,8.176L-4.72,8.176L-4.72,0L0,0L0,0.849L-3.469,0.849L-3.469,3.627L-0.459,3.627L-0.459,4.476L-3.469,4.476L-3.469,7.339L0,7.339L0,8.176Z" style="fill:rgb(68,68,68);fill-rule:nonzero;"/>
                </g>
                <g transform="matrix(1,0,0,1,99.6173,98.048)">
                    <path d="M0,0.388C0.301,1.759 0.459,2.923 0.459,2.923C0.459,2.923 0.602,1.759 0.871,0.376L1.758,-3.894L2.93,-3.894L1.235,4.282L-0.174,4.282L-1.046,0.291C-1.41,-1.323 -1.568,-2.33 -1.568,-2.33C-1.568,-2.33 -1.711,-1.323 -2.059,0.278L-2.946,4.282L-4.356,4.282L-6.051,-3.894L-4.863,-3.894L-3.992,0.376C-3.706,1.807 -3.564,2.923 -3.564,2.923C-3.564,2.923 -3.406,1.795 -3.105,0.388L-2.186,-3.894L-0.935,-3.894L0,0.388Z" style="fill:rgb(68,68,68);fill-rule:nonzero;"/>
                </g>
                <g transform="matrix(1,0,0,1,119.283,97.2228)">
                    <path d="M0,2.038L2.218,2.038L1.853,0.777C1.267,-1.286 1.141,-1.941 1.109,-2.22C1.077,-1.941 0.95,-1.274 0.364,0.777L0,2.038ZM1.964,-3.069L4.372,5.107L3.12,5.107L2.471,2.863L-0.238,2.863L-0.887,5.107L-2.154,5.107L0.269,-3.069L1.964,-3.069Z" style="fill:rgb(68,68,68);fill-rule:nonzero;"/>
                </g>
                <g transform="matrix(1,0,0,1,144.905,94.154)">
                    <path d="M0,8.176L-4.356,8.176L-4.356,0L-3.088,0L-3.088,7.339L0,7.339L0,8.176Z" style="fill:rgb(68,68,68);fill-rule:nonzero;"/>
                </g>
                <g transform="matrix(1,0,0,1,167.239,94.154)">
                    <path d="M0,8.176L-4.355,8.176L-4.355,0L-3.089,0L-3.089,7.339L0,7.339L0,8.176Z" style="fill:rgb(68,68,68);fill-rule:nonzero;"/>
                </g>
                <g transform="matrix(1,0,0,1,186.794,97.8905)">
                    <path d="M0,0.703C0.19,0.703 0.396,0.715 0.586,0.715C1.616,0.715 2.012,0.327 2.012,-0.328L2.012,-1.808C2.012,-2.463 1.584,-2.888 0.507,-2.888L-0.808,-2.888L-0.808,4.44L-2.059,4.44L-2.059,-3.737L0.507,-3.737C2.392,-3.737 3.263,-2.924 3.263,-1.808L3.263,-0.34C3.263,0.8 2.423,1.577 0.729,1.577C0.507,1.577 0.222,1.565 0,1.552L0,0.703Z" style="fill:rgb(68,68,68);fill-rule:nonzero;"/>
                </g>
                <g transform="matrix(1,0,0,1,208.623,97.2228)">
                    <path d="M0,2.038L2.217,2.038L1.853,0.777C1.267,-1.286 1.141,-1.941 1.109,-2.22C1.077,-1.941 0.951,-1.274 0.364,0.777L0,2.038ZM1.964,-3.069L4.372,5.107L3.12,5.107L2.471,2.863L-0.237,2.863L-0.887,5.107L-2.154,5.107L0.269,-3.069L1.964,-3.069Z" style="fill:rgb(68,68,68);fill-rule:nonzero;"/>
                </g>
                <g transform="matrix(1,0,0,1,231.464,97.8905)">
                    <path d="M0,0.703C0.19,0.703 0.396,0.715 0.586,0.715C1.616,0.715 2.012,0.327 2.012,-0.328L2.012,-1.808C2.012,-2.463 1.584,-2.888 0.507,-2.888L-0.808,-2.888L-0.808,4.44L-2.059,4.44L-2.059,-3.737L0.507,-3.737C2.392,-3.737 3.263,-2.924 3.263,-1.808L3.263,-0.34C3.263,0.8 2.423,1.577 0.729,1.577C0.507,1.577 0.222,1.565 0,1.552L0,0.703Z" style="fill:rgb(68,68,68);fill-rule:nonzero;"/>
                </g>
                <g transform="matrix(1,0,0,1,256.761,94.154)">
                    <path d="M0,8.176L-4.72,8.176L-4.72,0L0,0L0,0.849L-3.469,0.849L-3.469,3.627L-0.46,3.627L-0.46,4.476L-3.469,4.476L-3.469,7.339L0,7.339L0,8.176Z" style="fill:rgb(68,68,68);fill-rule:nonzero;"/>
                </g>
                <g transform="matrix(1,0,0,1,275.184,101.481)">
                    <path d="M0,-6.478L0,-3.239L1.315,-3.239C2.392,-3.239 2.819,-3.639 2.819,-4.307L2.819,-5.398C2.819,-6.053 2.392,-6.478 1.315,-6.478L0,-6.478ZM0,-2.378L0,0.849L-1.251,0.849L-1.251,-7.327L1.315,-7.327C3.199,-7.327 4.071,-6.514 4.071,-5.398L4.071,-4.294C4.071,-3.518 3.643,-2.875 2.708,-2.572L4.356,0.849L2.978,0.849L1.52,-2.378L0,-2.378Z" style="fill:rgb(68,68,68);fill-rule:nonzero;"/>
                </g>
            </g>
        </g>
    </g>
    <defs>
        <linearGradient id="_Linear1" x1="0" y1="0" x2="1" y2="0" gradientUnits="userSpaceOnUse" gradientTransform="matrix(-37.0497,24.1572,-24.1572,-37.0497,27.6883,50.0418)"><stop offset="0" style="stop-color:rgb(0,255,155);stop-opacity:1"/><stop offset="1" style="stop-color:rgb(0,153,93);stop-opacity:1"/></linearGradient>
    </defs>
</svg>
