<?xml version="1.0" encoding="UTF-8" standalone="no"?>
<!DOCTYPE svg PUBLIC "-//W3C//DTD SVG 1.1//EN" "http://www.w3.org/Graphics/SVG/1.1/DTD/svg11.dtd">
<svg width="100%" height="100%" viewBox="0 0 512 512" version="1.1" xmlns="http://www.w3.org/2000/svg" xmlns:xlink="http://www.w3.org/1999/xlink" xml:space="preserve" xmlns:serif="http://www.serif.com/" style="fill-rule:evenodd;clip-rule:evenodd;stroke-linejoin:round;stroke-miterlimit:2;">
    <g transform="matrix(1,0,0,1,-1284.28,0)">
        <g id="logo-icon" transform="matrix(1,0,0,1,1284.28,0)">
            <rect x="0" y="0" width="512" height="512" style="fill:none;"/>
            <g id="icon" transform="matrix(2.48256,0,0,2.48256,-1872.25,-379.554)">
                <g transform="matrix(1.07319,0,0,1.07319,847.061,222.396)">
                    <path d="M54.827,74.085L-9.361,74.199L22.669,0.655C23.056,0 24.003,0 24.39,0.655L55.685,72.576C56.079,73.242 55.6,74.084 54.827,74.085Z" style="fill:url(#_Linear1);fill-rule:nonzero;"/>
                </g>
                <g transform="matrix(1.07319,0,0,1.07319,847.061,222.396)">
                    <path d="M23.902,74.175L-7.547,19.278C-7.935,18.623 -8.882,18.623 -9.269,19.278L-35.532,72.69C-35.926,73.357 -35.446,74.199 -34.671,74.199L23.902,74.175Z" style="fill:rgb(0,255,155);fill-rule:nonzero;"/>
                </g>
                <g transform="matrix(1.07319,0,0,1.07319,819.73,209.974)">
                    <path d="M0,23.282C6.541,23.282 11.087,18.626 11.087,11.531C11.087,4.545 6.541,0 0,0C-6.431,0 -11.309,4.656 -11.309,11.641C-11.309,18.736 -6.431,23.282 0,23.282" style="fill:rgb(0,255,155);fill-rule:nonzero;"/>
                </g>
            </g>
        </g>
    </g>
    <defs>
        <linearGradient id="_Linear1" x1="0" y1="0" x2="1" y2="0" gradientUnits="userSpaceOnUse" gradientTransform="matrix(-37.0497,24.1572,-24.1572,-37.0497,27.6883,50.0418)"><stop offset="0" style="stop-color:rgb(0,255,155);stop-opacity:1"/><stop offset="1" style="stop-color:rgb(0,153,93);stop-opacity:1"/></linearGradient>
    </defs>
</svg>
