<?xml version="1.0" encoding="UTF-8" standalone="no"?>
<!DOCTYPE svg PUBLIC "-//W3C//DTD SVG 1.1//EN" "http://www.w3.org/Graphics/SVG/1.1/DTD/svg11.dtd">
<svg width="100%" height="100%" viewBox="0 0 300 300" version="1.1" xmlns="http://www.w3.org/2000/svg" xmlns:xlink="http://www.w3.org/1999/xlink" xml:space="preserve" xmlns:serif="http://www.serif.com/" style="fill-rule:evenodd;clip-rule:evenodd;stroke-linejoin:round;stroke-miterlimit:2;">
    <g transform="matrix(0.15625,0,0,0.277778,9.09495e-13,0)">
        <g id="wp-coming" transform="matrix(1,0,0,0.999999,-6.0254e-12,1.38862e-13)">
            <rect x="0" y="0" width="1920" height="1080" style="fill:rgb(39,39,39);"/>
        </g>
        <g id="wp-coming1" serif:id="wp-coming" transform="matrix(1,0,0,0.866667,0,68.2463)">
            <g transform="matrix(13.5633,0,0,8.8031,-803.229,-512.041)">
                <g>
                    <rect x="120" y="70" width="20" height="100" style="fill:rgb(34,34,34);"/>
                </g>
                <g transform="matrix(6.12325e-17,-1,1,6.12319e-17,10,250)">
                    <rect x="120" y="70" width="20" height="100" style="fill:rgb(34,34,34);"/>
                </g>
            </g>
            <g transform="matrix(13.5633,0,0,8.8031,-767.177,-524.202)">
                <g>
                    <path d="M66.35,149.81L66.35,143.39C66.35,143.26 66.45,143.17 66.57,143.17L68.42,143.17C68.53,143.17 68.63,143.23 68.63,143.41L68.69,144.1C69.08,143.46 69.71,143.01 70.61,143.01C71.45,143.01 72.12,143.42 72.52,144.16C72.93,143.49 73.61,143.01 74.62,143.01C76.12,143.01 77.04,144.06 77.04,145.85L77.04,149.81C77.04,149.94 76.94,150.03 76.82,150.03L74.91,150.03C74.78,150.03 74.69,149.93 74.69,149.81L74.69,146.41C74.69,145.58 74.41,145.16 73.78,145.16C73.15,145.16 72.87,145.58 72.87,146.41L72.87,149.81C72.87,149.94 72.77,150.03 72.65,150.03L70.77,150.03C70.62,150.03 70.52,149.93 70.52,149.81L70.52,146.41C70.52,145.58 70.25,145.16 69.62,145.16C69.03,145.16 68.71,145.58 68.71,146.41L68.71,149.81C68.71,149.94 68.61,150.03 68.49,150.03L66.58,150.03C66.45,150.03 66.36,149.93 66.35,149.81Z" style="fill:rgb(0,255,155);fill-rule:nonzero;"/>
                </g>
                <g>
                    <path d="M78.14,146.61C78.14,144.59 79.67,143.01 81.77,143.01C83.87,143.01 85.38,144.59 85.38,146.61C85.38,148.63 83.85,150.21 81.77,150.21C79.69,150.21 78.14,148.63 78.14,146.61ZM81.77,148.05C82.51,148.05 83.13,147.52 83.13,146.61C83.13,145.7 82.51,145.17 81.77,145.17C81.03,145.17 80.4,145.7 80.4,146.61C80.4,147.52 81.02,148.05 81.77,148.05Z" style="fill:rgb(0,255,155);fill-rule:nonzero;"/>
                </g>
                <g>
                    <path d="M86.5,149.81L86.5,143.39C86.5,143.26 86.6,143.17 86.72,143.17L88.57,143.17C88.68,143.17 88.77,143.23 88.78,143.41L88.85,144.33C89.07,143.56 89.49,143 90.28,143C90.63,143 90.81,143.1 90.91,143.18C91.02,143.26 91.05,143.36 91.05,143.49L91.05,145.04C91.05,145.21 90.95,145.26 90.76,145.22C90.62,145.18 90.48,145.15 90.24,145.15C89.41,145.15 88.85,145.58 88.85,146.65L88.85,149.8C88.85,149.93 88.75,150.02 88.63,150.02L86.72,150.02C86.59,150.02 86.5,149.92 86.5,149.81Z" style="fill:rgb(0,255,155);fill-rule:nonzero;"/>
                </g>
                <g>
                    <path d="M91.68,146.58C91.68,144.56 93.1,143.01 95.24,143.01C97.38,143.01 98.56,144.54 98.56,146.3C98.56,147.04 98.38,147.51 97.69,147.51L93.98,147.51C94.23,148.14 94.83,148.38 95.69,148.38C96.08,148.38 96.53,148.37 97.1,148.06C97.21,148 97.28,148.03 97.35,148.14L97.99,149.04C98.05,149.12 98.06,149.24 97.92,149.36C97.34,149.95 96.46,150.21 95.48,150.21C93.22,150.21 91.67,148.7 91.68,146.58ZM96.47,145.89C96.33,145.16 95.83,144.92 95.25,144.92C94.65,144.92 94.12,145.19 93.93,145.89L96.47,145.89Z" style="fill:rgb(0,255,155);fill-rule:nonzero;"/>
                </g>
                <g>
                    <path d="M66,158.56C66,156.54 67.51,155 69.59,155C70.75,155 71.69,155.5 72.28,156.27C72.36,156.37 72.34,156.49 72.25,156.58L71.17,157.62C71.07,157.72 70.89,157.73 70.79,157.62C70.44,157.3 70.1,157.16 69.7,157.16C68.78,157.16 68.26,157.8 68.26,158.56C68.26,159.32 68.78,160.04 69.74,160.04C70.12,160.04 70.45,159.9 70.8,159.56C70.9,159.46 71.08,159.48 71.18,159.57L72.26,160.61C72.34,160.69 72.37,160.82 72.29,160.92C71.7,161.69 70.76,162.19 69.66,162.19C67.54,162.19 66,160.61 66,158.56Z" style="fill:rgb(0,255,155);fill-rule:nonzero;"/>
                </g>
                <g>
                    <path d="M72.87,158.61C72.87,156.59 74.4,155.01 76.5,155.01C78.6,155.01 80.11,156.59 80.11,158.61C80.11,160.63 78.58,162.21 76.5,162.21C74.42,162.21 72.87,160.63 72.87,158.61ZM76.5,160.05C77.24,160.05 77.86,159.52 77.86,158.61C77.86,157.7 77.24,157.17 76.5,157.17C75.76,157.17 75.13,157.7 75.13,158.61C75.13,159.52 75.75,160.05 76.5,160.05Z" style="fill:rgb(0,255,155);fill-rule:nonzero;"/>
                </g>
                <g>
                    <path d="M81.23,161.81L81.23,155.39C81.23,155.26 81.33,155.17 81.45,155.17L83.3,155.17C83.41,155.17 83.51,155.23 83.51,155.41L83.57,156.1C83.96,155.46 84.59,155.01 85.49,155.01C86.33,155.01 87,155.42 87.4,156.16C87.81,155.49 88.49,155.01 89.5,155.01C91,155.01 91.92,156.06 91.92,157.85L91.92,161.81C91.92,161.94 91.82,162.03 91.7,162.03L89.79,162.03C89.66,162.03 89.57,161.93 89.57,161.81L89.57,158.41C89.57,157.58 89.29,157.16 88.66,157.16C88.03,157.16 87.75,157.58 87.75,158.41L87.75,161.81C87.75,161.94 87.65,162.03 87.53,162.03L85.65,162.03C85.5,162.03 85.4,161.93 85.4,161.81L85.4,158.41C85.4,157.58 85.13,157.16 84.5,157.16C83.91,157.16 83.59,157.58 83.59,158.41L83.59,161.81C83.59,161.94 83.49,162.03 83.37,162.03L81.46,162.03C81.33,162.03 81.24,161.93 81.23,161.81Z" style="fill:rgb(0,255,155);fill-rule:nonzero;"/>
                </g>
                <g>
                    <path d="M93.32,152.93C93.32,152.23 93.85,151.67 94.59,151.67C95.33,151.67 95.87,152.23 95.87,152.93C95.87,153.63 95.32,154.2 94.59,154.2C93.86,154.2 93.32,153.64 93.32,152.93ZM93.4,155.4C93.4,155.27 93.5,155.18 93.62,155.18L95.55,155.18C95.68,155.18 95.77,155.28 95.77,155.4L95.77,161.82C95.77,161.95 95.67,162.04 95.55,162.04L93.62,162.04C93.49,162.04 93.4,161.94 93.4,161.82L93.4,155.4Z" style="fill:rgb(0,255,155);fill-rule:nonzero;"/>
                </g>
                <g>
                    <path d="M97.29,161.81L97.29,155.39C97.29,155.26 97.39,155.17 97.51,155.17L99.36,155.17C99.47,155.17 99.57,155.23 99.57,155.41L99.64,156.18C100.03,155.48 100.63,155 101.6,155C103.01,155 104.08,156.06 104.08,157.84L104.08,161.8C104.08,161.93 103.97,162.02 103.84,162.02L101.95,162.02C101.82,162.02 101.73,161.92 101.73,161.8L101.73,158.42C101.73,157.57 101.38,157.15 100.69,157.15C100,157.15 99.64,157.57 99.64,158.42L99.64,161.8C99.64,161.93 99.54,162.02 99.42,162.02L97.51,162.02C97.38,162.02 97.29,161.92 97.29,161.81Z" style="fill:rgb(0,255,155);fill-rule:nonzero;"/>
                </g>
                <g>
                    <path d="M106.05,164.06C105.9,163.96 105.9,163.75 105.97,163.61L106.46,162.66C106.54,162.51 106.68,162.44 106.87,162.53C107.47,162.85 108.06,163.02 108.62,163.02C109.42,163.02 110.3,162.68 110.3,161.61L110.3,161.06C109.89,161.56 109.26,161.87 108.38,161.87C106.46,161.87 105.2,160.45 105.2,158.44C105.2,156.43 106.46,155.01 108.38,155.01C109.3,155.01 109.91,155.3 110.31,155.82L110.35,155.4C110.35,155.27 110.45,155.18 110.57,155.18L112.31,155.18C112.44,155.18 112.53,155.28 112.53,155.4L112.53,161.61C112.53,164.2 110.5,164.92 108.85,164.92C107.8,164.92 106.79,164.64 106.05,164.06ZM108.85,159.77C109.63,159.77 110.19,159.25 110.19,158.43C110.19,157.61 109.63,157.11 108.85,157.11C108.07,157.11 107.49,157.63 107.49,158.44C107.49,159.25 108.06,159.77 108.85,159.77Z" style="fill:rgb(0,255,155);fill-rule:nonzero;"/>
                </g>
                <g>
                    <path d="M66.11,173.02C66.04,172.94 66.05,172.75 66.17,172.6L66.79,171.73C66.92,171.53 67.04,171.58 67.15,171.65C67.78,172.07 68.24,172.27 68.68,172.27C68.99,172.27 69.18,172.19 69.18,171.93C69.18,171.73 69.05,171.64 68.63,171.45L67.73,171.1C66.82,170.75 66.24,170.12 66.24,169.18C66.24,167.79 67.43,167.01 68.78,167.01C69.72,167.01 70.59,167.39 71.2,168.12C71.28,168.22 71.26,168.33 71.19,168.4L70.39,169.35C70.31,169.45 70.19,169.43 70.07,169.35C69.62,169.01 69.26,168.83 68.91,168.83C68.53,168.83 68.48,169.04 68.48,169.18C68.48,169.36 68.68,169.52 68.91,169.6L70,170.03C70.85,170.37 71.53,171 71.51,172.03C71.48,173.47 70.25,174.2 68.82,174.2C67.66,174.2 66.72,173.74 66.11,173.02Z" style="fill:rgb(0,255,155);fill-rule:nonzero;"/>
                </g>
                <g>
                    <path d="M72.24,170.61C72.24,168.59 73.77,167.01 75.87,167.01C77.97,167.01 79.48,168.59 79.48,170.61C79.48,172.63 77.95,174.21 75.87,174.21C73.79,174.21 72.24,172.63 72.24,170.61ZM75.87,172.05C76.61,172.05 77.23,171.52 77.23,170.61C77.23,169.7 76.61,169.17 75.87,169.17C75.13,169.17 74.5,169.7 74.5,170.61C74.5,171.52 75.12,172.05 75.87,172.05Z" style="fill:rgb(0,255,155);fill-rule:nonzero;"/>
                </g>
                <g>
                    <path d="M80.22,170.61C80.22,168.59 81.75,167.01 83.85,167.01C85.95,167.01 87.46,168.59 87.46,170.61C87.46,172.63 85.93,174.21 83.85,174.21C81.77,174.21 80.22,172.63 80.22,170.61ZM83.85,172.05C84.59,172.05 85.21,171.52 85.21,170.61C85.21,169.7 84.59,169.17 83.85,169.17C83.11,169.17 82.48,169.7 82.48,170.61C82.48,171.52 83.1,172.05 83.85,172.05Z" style="fill:rgb(0,255,155);fill-rule:nonzero;"/>
                </g>
                <g>
                    <path d="M88.59,173.81L88.59,167.39C88.59,167.26 88.69,167.17 88.81,167.17L90.66,167.17C90.77,167.17 90.87,167.23 90.87,167.41L90.94,168.18C91.33,167.48 91.93,167 92.9,167C94.31,167 95.38,168.06 95.38,169.84L95.38,173.8C95.38,173.93 95.27,174.02 95.14,174.02L93.25,174.02C93.12,174.02 93.03,173.92 93.03,173.8L93.03,170.42C93.03,169.57 92.68,169.15 91.99,169.15C91.3,169.15 90.94,169.57 90.94,170.42L90.94,173.8C90.94,173.93 90.84,174.02 90.72,174.02L88.81,174.02C88.68,174.02 88.59,173.92 88.59,173.81Z" style="fill:rgb(0,255,155);fill-rule:nonzero;"/>
                </g>
            </g>
        </g>
    </g>
</svg>
